<svg xmlns:xlink="http://www.w3.org/1999/xlink" xmlns="http://www.w3.org/2000/svg" fill-opacity="1" color-rendering="auto" color-interpolation="auto" stroke="black" text-rendering="auto" stroke-linecap="square" stroke-miterlimit="10" stroke-opacity="1" shape-rendering="auto" fill="black" stroke-dasharray="none" font-weight="normal" stroke-width="1" font-family="'Dialog'" font-style="normal" stroke-linejoin="miter" font-size="12" stroke-dashoffset="0" image-rendering="auto">
  <!--Unicode Character 'HAMBURGER' (U+1F354)-->
  <defs id="genericDefs"/>
  <g>
    <g>
      <path d="M293.4844 219.5156 Q293.4844 221.9062 280.2656 231.3281 Q271.9688 237.0938 263.6719 242.8594 Q268.1719 261.5625 268.1719 265.7812 Q268.1719 292.0781 246.6562 306.5625 Q241.5938 309.9375 233.2969 313.0312 Q226.125 315.4219 219.0938 317.8125 Q183.2344 331.4531 144.1406 331.4531 Q123.3281 331.4531 94.5 324 Q93.5156 323.7188 82.125 319.2188 Q74.3906 316.6875 59.625 309.7969 Q48.375 302.9062 38.25 283.2188 Q36 278.8594 35.0156 270.7031 Q34.4531 264.2344 33.75 257.625 Q27.1406 255.9375 20.5312 254.1094 Q11.5312 251.7188 11.5312 246.5156 Q11.5312 245.1094 11.6719 244.5469 L38.5312 216.4219 L37.125 216.4219 Q35.5781 216.4219 32.6953 217.1953 Q29.8125 217.9688 28.2656 217.9688 Q24.6094 217.9688 21.9375 215.0859 Q19.2656 212.2031 19.2656 208.5469 Q19.2656 196.7344 26.0156 190.4062 Q34.0312 184.5 42.0469 178.7344 Q41.2031 172.6875 41.2031 163.5469 Q41.2031 150.4688 43.1719 143.1562 Q44.5781 137.8125 50.7656 124.3125 Q63 97.875 100.9688 86.9062 Q125.8594 79.7344 131.2031 79.7344 L163.5469 79.7344 Q189.9844 79.7344 213.4688 85.6406 Q244.125 93.2344 256.5 108.5625 Q257.4844 109.8281 263.25 121.9219 Q268.1719 132.3281 268.1719 145.8281 Q268.1719 147.0938 264.9375 166.7812 Q277.3125 173.5312 277.3125 180.4219 Q277.3125 182.8125 276.0469 184.3594 Q278.2969 195.75 278.2969 194.9062 Q278.2969 198 275.4844 200.25 Q283.2188 205.4531 292.2188 212.625 Q293.4844 214.5938 293.4844 219.5156 ZM234.7031 228.7969 L234.2812 225.7031 Q233.7188 225.7031 232.5938 226.6875 L232.5938 228.375 L234.7031 228.7969 ZM256.3594 145.4062 Q256.3594 135.7031 255.2344 131.625 Q251.0156 116.4375 238.7812 107.8594 Q234.4219 104.7656 222.8906 100.3359 Q211.3594 95.9062 205.7344 95.0625 Q175.2188 90.2812 153.9844 90.2812 Q117.7031 90.2812 90.2812 103.3594 Q84.5156 106.0312 78.6094 108.8438 Q72.2812 112.2188 68.3438 116.4375 Q56.6719 129.0938 53.4375 145.4062 Q50.9062 158.0625 50.9062 155.9531 L50.9062 178.4531 Q53.0156 182.25 58.7812 188.8594 Q64.6875 193.5 83.5312 199.5469 Q101.9531 205.5938 109.2656 205.5938 L154.8281 205.5938 Q167.3438 205.5938 196.1719 199.8281 Q203.9062 198.8438 218.6719 195.3281 Q250.0312 183.9375 254.8125 165.0938 Q256.3594 159.0469 256.3594 145.4062 ZM229.7812 230.2031 Q229.7812 227.1094 227.6719 227.1094 Q224.5781 227.1094 220.6406 229.3594 L220.6406 233.8594 Q222.6094 235.6875 224.0156 235.6875 Q225.9844 235.6875 227.8828 233.8594 Q229.7812 232.0312 229.7812 230.2031 ZM271.4062 193.0781 Q269.5781 189.9844 264.9375 186.4688 L264.9375 185.2031 Q264.9375 184.7812 266.3438 178.1719 Q265.0781 177.75 259.7344 174.9375 Q248.7656 188.7188 243.5625 191.8125 Q221.4844 204.8906 197.0156 209.8125 Q195.4688 210.2344 192.5156 210.9375 Q189.1406 211.5 164.8125 213.0469 Q144.9844 214.3125 142.5938 214.3125 Q119.8125 214.3125 93.2344 211.3594 Q79.875 209.8125 67.9219 204.1875 Q53.7188 197.4375 48.375 187.3125 Q40.0781 192.375 37.125 194.7656 Q30.2344 200.25 29.8125 205.0312 L31.5 205.0312 Q34.3125 205.0312 39.7969 203.6953 Q45.2812 202.3594 48.0938 202.3594 Q50.625 202.3594 56.5312 207.8438 Q62.4375 213.3281 69.3281 213.3281 Q70.1719 213.3281 71.8594 212.9062 Q73.5469 212.4844 74.3906 212.4844 Q78.0469 212.4844 85.9219 220.7812 Q95.7656 231.1875 96.75 231.8906 Q100.9688 234.8438 118.2656 234.8438 Q119.1094 234.8438 123.5391 237.3047 Q127.9688 239.7656 129.0938 239.9062 Q132.3281 237.9375 139.0781 234.5625 Q154.6875 228.375 188.2969 228.375 Q190.125 228.375 193.6406 229.2891 Q197.1562 230.2031 198.9844 230.2031 L209.5312 230.2031 Q209.5312 223.3125 210.6562 220.5 Q211.0781 219.375 214.1016 216.8438 Q217.125 214.3125 218.1094 214.3125 L240.0469 214.3125 Q245.1094 214.3125 251.1562 209.5312 Q256.6406 203.0625 263.5312 196.0312 Q264.6562 195.8906 267.1875 195.3281 Q268.5938 194.4844 271.4062 193.0781 ZM280.125 217.2656 L265.2188 206.0156 Q254.8125 216.4219 247.2188 222.0469 Q249.0469 229.3594 249.0469 229.3594 Q249.0469 234.5625 244.2656 242.7188 Q242.8594 245.1094 240.3281 247.0781 Q230.9062 254.5312 196.5938 260.5781 Q192.7969 261.7031 185.0625 263.5312 Q180.9844 264.0938 162.8438 265.0781 Q146.5312 265.9219 142.875 265.9219 Q120.5156 265.9219 92.8125 258.3281 Q88.875 257.625 81.4219 255.375 Q79.3125 253.6875 74.5312 250.5938 Q72 249.8906 67.2188 248.0625 Q50.3438 240.0469 51.6094 216.1406 L25.1719 242.4375 Q60.1875 252.4219 83.1094 259.7344 Q88.1719 261.8438 98.5781 265.3594 Q135.9844 273.9375 209.9531 293.9062 Q216.7031 280.125 232.7344 261.7031 Q239.625 252.8438 254.8125 236.3906 Q263.8125 230.625 280.125 217.2656 ZM258.1875 263.25 Q258.1875 257.625 256.0781 249.4688 Q246.2344 260.0156 227.25 281.6719 Q221.4844 290.25 208.4062 306.2812 L144.7031 287.4375 Q136.9688 290.25 116.2969 290.25 Q106.7344 290.25 100.5469 288.7031 Q98.2969 287.7188 93.6562 286.3125 Q91.6875 286.0312 87.6094 285.3281 Q83.5312 284.625 76.2891 280.0547 Q69.0469 275.4844 65.9531 271.9688 Q64.8281 270.7031 63.4219 263.8125 Q60.4688 261.2812 54.8438 260.4375 Q50.0625 259.875 45.4219 259.1719 L45.4219 261.1406 Q45.4219 283.3594 66.0938 299.5312 Q67.3594 300.6562 70.1719 302.4844 Q80.4375 307.9688 97.875 312.4688 Q114.8906 316.8281 126.9844 317.3906 Q131.0625 317.5312 141.0469 318.7969 Q150.0469 319.9219 155.25 319.9219 Q170.5781 319.9219 196.5938 313.4531 Q211.3594 309.7969 232.3125 301.0781 Q243.7031 296.2969 250.9453 285.8906 Q258.1875 275.4844 258.1875 263.25 ZM98.4375 237.375 Q97.3125 236.25 96.1875 236.25 L96.1875 238.9219 Q96.8906 238.9219 98.4375 237.375 ZM89.7188 235.125 L89.7188 234.5625 Q89.7188 232.5938 87.4688 232.5938 Q85.2188 232.5938 85.2188 234.8438 Q85.2188 235.2656 85.4297 236.1797 Q85.6406 237.0938 85.6406 237.5156 L88.1719 237.5156 Q89.7188 235.9688 89.7188 235.125 ZM84.2344 233.4375 L84.2344 228.5156 Q83.6719 227.3906 82.125 227.25 Q79.7344 226.9688 79.5938 226.9688 Q78.3281 226.5469 74.1094 223.875 Q71.2969 222.0469 67.7812 222.0469 Q61.875 222.0469 61.875 224.7188 Q61.875 226.125 63.6328 228.6562 Q65.3906 231.1875 66.6562 231.4688 Q69.1875 231.75 74.25 232.7344 Q76.7812 236.6719 78.75 236.6719 Q77.625 236.6719 84.2344 233.4375 ZM108.5625 277.1719 Q108.5625 274.5 105.6094 272.8125 Q102.0938 274.2188 102.0938 276.8906 Q102.0938 280.5469 105.75 280.5469 Q108.5625 280.5469 108.5625 277.1719 ZM97.0312 276.3281 L97.0312 272.9531 Q96.75 272.8125 93.9375 270.5625 Q92.1094 269.1562 90.4219 269.1562 Q89.7188 269.1562 88.5938 269.8594 Q87.4688 270.5625 86.7656 270.5625 Q86.0625 270.5625 84.7266 269.6484 Q83.3906 268.7344 82.6875 268.7344 Q81.8438 268.7344 80.2969 268.9453 Q78.75 269.1562 77.9062 269.1562 Q77.4844 270.1406 77.4844 271.125 L77.4844 271.8281 Q86.3438 278.0156 89.5781 278.0156 Q94.7812 278.0156 97.0312 276.3281 ZM207.2812 104.9062 Q207.2812 106.4531 205.4531 107.0156 Q204.3281 107.4375 202.5 107.2969 L200.1094 107.2969 Q198.8438 107.2969 196.0312 105.0469 Q193.2188 102.7969 193.2188 101.6719 Q193.2188 100.5469 193.7812 99.8438 L201.5156 99.8438 Q204.1875 99.8438 207.2812 104.9062 ZM213.3281 118.9688 Q207.7031 123.1875 204.3281 123.1875 Q199.9688 123.1875 199.9688 119.9531 Q199.9688 118.5469 202.9922 116.2969 Q206.0156 114.0469 207.5625 114.0469 Q207.8438 114.0469 213.3281 116.8594 L213.3281 118.9688 ZM176.625 101.9531 Q176.625 104.4844 172.125 104.4844 L170.0156 104.4844 Q166.7812 104.4844 161.5781 98.1562 Q164.3906 96.1875 166.5 96.1875 Q176.625 96.1875 176.625 101.9531 ZM187.1719 111.0938 Q183.2344 116.2969 181.9688 116.2969 Q179.7188 116.2969 176.625 115.1719 Q172.9688 113.7656 172.9688 111.9375 Q172.9688 107.5781 182.25 107.5781 Q183.6562 107.5781 187.1719 111.0938 ZM178.875 131.7656 Q174.7969 136.4062 166.2188 136.4062 Q159.75 136.4062 159.75 133.0312 Q159.75 130.6406 164.3906 128.8125 Q168.1875 127.2656 171 127.2656 Q171.9844 127.2656 173.8125 127.7578 Q175.6406 128.25 176.625 128.25 Q178.3125 128.25 178.875 127.4062 L178.875 131.7656 ZM148.7812 104.9062 Q148.7812 109.4062 138.5156 109.4062 Q136.125 109.4062 135 107.5781 L135 104.0625 Q139.2188 100.8281 141.8906 100.8281 Q148.7812 100.8281 148.7812 104.9062 ZM154.6875 117.8438 Q154.9688 120.6562 149.625 123.1875 Q145.125 125.4375 141.8906 125.4375 Q137.3906 125.4375 137.3906 122.3438 Q137.3906 116.2969 149.9062 116.2969 Q153.7031 116.2969 154.6875 117.8438 ZM120.7969 109.2656 Q120.7969 112.3594 116.9297 115.0312 Q113.0625 117.7031 109.8281 117.7031 Q107.4375 117.7031 104.9062 116.2969 L104.9062 112.2188 Q112.6406 107.1562 113.7656 107.1562 L120.2344 107.1562 Q120.7969 107.7188 120.7969 109.2656 ZM145.2656 143.2969 Q145.2656 144.2812 145.125 145.125 Q142.1719 146.9531 140.7656 146.9531 Q138.0938 146.9531 135.2109 144.7734 Q132.3281 142.5938 132.3281 140.0625 Q132.3281 137.3906 135.2812 137.3906 Q145.2656 137.3906 145.2656 143.2969 ZM123.1875 127.2656 Q123.1875 129.0938 118.1953 132.1172 Q113.2031 135.1406 111.0938 135.1406 Q110.25 135.1406 108.7031 134.6484 Q107.1562 134.1562 106.3125 134.1562 L105.75 133.5938 L105.75 131.0625 Q112.6406 124.1719 118.8281 124.1719 Q123.1875 124.1719 123.1875 127.2656 ZM93.375 126.4219 Q93.375 130.0781 88.1719 130.0781 Q80.1562 130.0781 80.1562 124.5938 Q80.1562 119.9531 84.5156 119.9531 Q87.1875 119.9531 90.2812 121.9219 Q93.375 123.8906 93.375 126.4219 ZM205.4531 105.1875 Q200.8125 101.6719 199.2656 101.6719 L196.875 101.6719 Q197.8594 105.75 202.5 105.75 Q203.0625 105.75 204.0469 105.4688 Q205.0312 105.1875 205.4531 105.1875 ZM210.5156 118.5469 Q210.375 117.8438 210.0938 116.2969 L207.1406 116.2969 Q205.3125 116.2969 203.2031 119.9531 Q207.1406 119.3906 210.5156 118.5469 ZM172.9688 101.25 Q172.8281 100.6875 172.5469 99.4219 Q168.3281 98.0156 168.4688 98.0156 Q168.0469 98.0156 167.0625 98.2969 Q166.0781 98.5781 165.6562 98.5781 Q168.3281 101.25 169.1719 101.25 L172.9688 101.25 ZM184.0781 111.5156 L177.75 110.8125 Q176.7656 111.7969 176.7656 112.6406 Q177.4688 112.6406 178.9453 112.8516 Q180.4219 113.0625 181.125 113.0625 L184.0781 111.5156 ZM176.625 130.5 Q175.5 129.6562 173.6719 129.6562 Q170.4375 129.6562 164.3906 132.6094 Q165.375 132.6094 167.4141 133.1719 Q169.4531 133.7344 170.5781 133.7344 Q171.5625 133.7344 176.625 130.5 ZM145.9688 104.0625 L140.7656 104.0625 Q140.0625 104.0625 138.6562 105.6094 Q140.9062 106.7344 142.3125 106.7344 Q143.4375 106.7344 145.9688 104.0625 ZM150.6094 119.6719 L146.25 119.1094 Q144.7031 119.9531 141.4688 121.6406 Q144.7031 121.6406 150.6094 119.6719 ZM116.7188 110.3906 L111.375 110.3906 L108.5625 113.2031 L108.5625 114.8906 L111.375 114.8906 Q112.5 114.8906 116.7188 110.3906 ZM141.4688 143.7188 L141.4688 142.0312 Q139.7812 140.2031 138.9375 140.2031 L135.5625 140.2031 Q135.8438 140.9062 138.375 143.7188 L141.4688 143.7188 ZM118.9688 127.4062 L117 127.4062 Q115.0312 127.4062 109.8281 131.7656 L111.9375 131.7656 Q114.4688 130.6406 118.9688 127.4062 ZM90.1406 126.8438 Q88.3125 123.1875 85.7812 123.1875 L83.8125 123.1875 L83.8125 125.8594 Q84.0938 125.8594 84.7266 126.3516 Q85.3594 126.8438 85.9219 126.8438 L90.1406 126.8438 Z" stroke="none"/>
    </g>
  </g>
</svg>
